<?xml version="1.0" encoding="utf-8"?>
<!-- Generator: Adobe Illustrator 27.2.0, SVG Export Plug-In . SVG Version: 6.00 Build 0)  -->
<svg version="1.1" id="Layer_1" xmlns="http://www.w3.org/2000/svg" xmlns:xlink="http://www.w3.org/1999/xlink" x="0px" y="0px"
	 viewBox="0 0 32 32" style="enable-background:new 0 0 32 32;" xml:space="preserve">
<style type="text/css">
	.st0{fill:#FFFFFF;}
	.st1{fill:#ED1C24;}
</style>
<path class="st0" d="M16,28.7c-2.6,0-15-6.8-15-16.8c0-4.7,3.8-8.6,8.6-8.6c2.7,0,5,1.7,6.4,3.2c1.4-1.5,3.7-3.2,6.4-3.2
	c4.7,0,8.6,3.8,8.6,8.6C31,21.9,18.6,28.7,16,28.7z"/>
<g>
	<path class="st1" d="M16,27.7c-2.3,0-14-6.5-14-15.8c0-4.2,3.4-7.6,7.6-7.6c2.8,0,5.2,2.2,6.4,3.7c1.2-1.5,3.6-3.7,6.4-3.7
		c4.2,0,7.6,3.4,7.6,7.6C30,21.1,18.3,27.7,16,27.7L16,27.7z"/>
</g>
</svg>
