<?xml version="1.0" encoding="utf-8"?>
<!-- Generator: Adobe Illustrator 27.2.0, SVG Export Plug-In . SVG Version: 6.00 Build 0)  -->
<svg version="1.1" id="Layer_1" xmlns="http://www.w3.org/2000/svg" xmlns:xlink="http://www.w3.org/1999/xlink" x="0px" y="0px"
	 viewBox="0 0 32 32" style="enable-background:new 0 0 32 32;" xml:space="preserve">
<style type="text/css">
	.st0{fill:#FF0000;}
	.st1{fill:#FFFFFF;}
</style>
<g>
	<path class="st0" d="M23.1,25.5c-0.6,0-1.2-0.3-1.6-0.8l-5.4-5.4l0,0l-0.2,0l-5.4,5.4c-0.4,0.4-1,0.7-1.6,0.8l-0.1,0
		c-0.6,0-1.1-0.2-1.6-0.6c-0.5-0.5-0.7-1.1-0.7-1.7c0-0.6,0.3-1.2,0.7-1.7l5.4-5.4l0,0l0-0.2l-5.4-5.4c-0.4-0.4-0.7-1-0.8-1.6
		c0-0.6,0.2-1.2,0.6-1.7c0.5-0.5,1.1-0.7,1.7-0.7c0.7,0,1.3,0.3,1.7,0.7l5.4,5.4l0,0l0.2,0l5.4-5.4c0.4-0.4,1-0.7,1.6-0.8l0.1,0
		c0.6,0,1.1,0.2,1.6,0.6c0.5,0.5,0.7,1.1,0.7,1.7c0,0.6-0.3,1.2-0.7,1.7l-5.4,5.4l0,0l0,0.2l5.4,5.4c0.5,0.4,0.7,1,0.7,1.7
		c0,0.6-0.2,1.3-0.7,1.7c-0.4,0.4-1,0.6-1.6,0.6L23.1,25.5z"/>
	<path class="st1" d="M23.2,7c0.5,0,0.9,0.2,1.2,0.5C24.8,7.8,25,8.3,25,8.8c0,0.5-0.2,1-0.6,1.3L19,15.6c-0.1,0.1-0.2,0.3-0.2,0.4
		c0,0.2,0.1,0.3,0.2,0.4l5.4,5.4l0,0c0.4,0.3,0.6,0.8,0.6,1.3c0,0.5-0.2,1-0.5,1.3c-0.3,0.3-0.8,0.5-1.2,0.5c0,0-0.1,0-0.1,0
		c-0.5,0-0.9-0.2-1.3-0.6L16.5,19c-0.1-0.1-0.3-0.2-0.4-0.2c-0.2,0-0.3,0.1-0.4,0.2l-5.4,5.4C9.8,24.8,9.4,25,8.9,25
		c0,0-0.1,0-0.1,0c-0.5,0-0.9-0.2-1.2-0.5C7.2,24.2,7,23.7,7,23.2c0-0.5,0.2-1,0.6-1.3l5.4-5.4c0.1-0.1,0.2-0.3,0.2-0.4
		c0-0.2-0.1-0.3-0.2-0.4l-5.4-5.4C7.2,9.8,7,9.4,7,8.9c0-0.5,0.1-1,0.5-1.3C7.8,7.2,8.3,7,8.8,7c0,0,0,0,0,0c0.5,0,1,0.2,1.3,0.6
		l5.4,5.4c0.1,0.1,0.3,0.2,0.4,0.2c0.2,0,0.3-0.1,0.4-0.2l5.4-5.4C22.2,7.2,22.6,7,23.2,7C23.2,7,23.2,7,23.2,7 M23.2,6
		c0,0-0.1,0-0.1,0c-0.7,0-1.4,0.4-1.9,0.9L16,12l-5.1-5.1C10.4,6.4,9.6,6,8.8,6c0,0,0,0,0,0C8,6,7.3,6.3,6.8,6.9
		C6.2,7.4,6,8.2,6,8.9c0,0.7,0.4,1.4,0.9,1.9l5.1,5.1l-5.1,5.1c-0.5,0.5-0.9,1.3-0.9,2c0,0.8,0.3,1.5,0.8,2.1
		C7.4,25.7,8.1,26,8.8,26c0,0,0.1,0,0.1,0c0.7,0,1.4-0.4,1.9-0.9L16,20l5.1,5.1c0.5,0.5,1.2,0.9,1.9,0.9c0,0,0.1,0,0.1,0
		c0.7,0,1.4-0.3,1.9-0.7c0.6-0.6,0.9-1.3,0.9-2.1c0-0.8-0.3-1.5-0.9-2L20,16l5.1-5.1c0.5-0.5,0.9-1.3,0.9-2c0-0.8-0.3-1.5-0.8-2.1
		C24.6,6.3,23.9,6,23.2,6L23.2,6z"/>
</g>
</svg>
