<?xml version="1.0" encoding="utf-8"?>
<!-- Generator: Adobe Illustrator 27.2.0, SVG Export Plug-In . SVG Version: 6.00 Build 0)  -->
<svg version="1.1" id="Layer_1" xmlns="http://www.w3.org/2000/svg" xmlns:xlink="http://www.w3.org/1999/xlink" x="0px" y="0px"
	 viewBox="0 0 32 32" style="enable-background:new 0 0 32 32;" xml:space="preserve">
<style type="text/css">
	.st0{fill:#FFFFFF;}
	.st1{fill:#C08329;}
	.st2{fill:#FBC926;}
	.st3{fill:#EFB81B;}
	.st4{fill:#C3922E;}
	.st5{fill:#800000;}
</style>
<path class="st0" d="M15.1,31.1C6.8,31.1,0,24.3,0,16S6.8,0.9,15.1,0.9h1.8C25.2,0.9,32,7.7,32,16s-6.8,15.1-15.1,15.1H15.1z"/>
<path class="st1" d="M16.9,1.9h-1.8C7.3,1.9,1,8.2,1,16s6.3,14.1,14.1,14.1h1.8V1.9z"/>
<path class="st2" d="M16.9,1.9C24.7,1.9,31,8.2,31,16s-6.3,14.1-14.1,14.1c-0.3,0-0.6,0-0.9,0C8.6,29.6,2.8,23.5,2.8,16
	S8.6,2.4,16,1.9C16.3,1.9,16.6,1.9,16.9,1.9z"/>
<path class="st3" d="M2.8,16c0,7.8,6.3,14.1,14.1,14.1S31,23.8,31,16S24.7,1.9,16.9,1.9S2.8,8.2,2.8,16z M28.4,16
	c0,6.3-5.1,11.5-11.5,11.5S5.4,22.3,5.4,16S10.5,4.5,16.9,4.5S28.4,9.7,28.4,16z"/>
<path class="st4" d="M16.9,4.5c6.3,0,11.5,5.1,11.5,11.5s-5.1,11.5-11.5,11.5c-0.2,0-0.3,0-0.4,0c6.1-0.2,11-5.3,11-11.5
	s-4.9-11.2-11-11.5C16.6,4.5,16.7,4.5,16.9,4.5z"/>
<g>
	<path class="st5" d="M16.7,14.5h-2.2l-0.9,5.1h-1.6l0.9-5.1h-2.3l0.3-1.4h6.1L16.7,14.5z"/>
	<path class="st5" d="M23,14.5h-2.2l-0.9,5.1h-1.6l0.9-5.1h-2.3l0.3-1.4h6.1L23,14.5z"/>
</g>
</svg>
