<?xml version="1.0" encoding="utf-8"?>
<!-- Generator: Adobe Illustrator 27.2.0, SVG Export Plug-In . SVG Version: 6.00 Build 0)  -->
<svg version="1.1" id="Layer_1" xmlns="http://www.w3.org/2000/svg" xmlns:xlink="http://www.w3.org/1999/xlink" x="0px" y="0px"
	 viewBox="0 0 32 32" style="enable-background:new 0 0 32 32;" xml:space="preserve">
<style type="text/css">
	.st0{fill:#FF1493;}
</style>
<path class="st0" d="M27.9,22.9L20.9,16l6.9-6.9c1.3-1.3,1.5-3.4,0.3-4.8C27.5,3.5,26.6,3,25.5,3c-0.9,0-1.8,0.4-2.5,1l-7,7L9.1,4.1
	C8.4,3.4,7.4,3,6.4,3C5.6,3,4.9,3.3,4.3,3.8C3.5,4.4,3.1,5.3,3,6.3c0,1,0.3,2,1,2.6l7,7l-6.9,6.9c-1.3,1.3-1.5,3.5-0.3,4.9
	C4.5,28.6,5.5,29,6.5,29c0.9,0,1.8-0.4,2.5-1l7-7l7,7c0.7,0.7,1.5,1,2.5,1c1,0,2-0.4,2.7-1.2C29.3,26.4,29.2,24.3,27.9,22.9z
	 M27.4,27.1c-0.5,0.6-1.2,0.9-1.9,0.9c-0.6,0-1.3-0.2-1.8-0.7l-7.2-7.2c-0.3-0.3-0.8-0.3-1.1,0l-7.2,7.2C7.8,27.8,7.1,28,6.5,28
	c-0.7,0-1.4-0.3-1.9-0.9c-0.9-1-0.7-2.6,0.2-3.5l7.1-7.1c0.3-0.3,0.3-0.8,0-1.1L4.7,8.3c-1-1-1-2.8,0.2-3.7c1-0.8,2.5-0.7,3.4,0.3
	l7.1,7.1c0.3,0.3,0.8,0.3,1.1,0l7.2-7.2c1-1,2.8-1,3.7,0.2c0.8,1,0.7,2.5-0.3,3.4l-7.1,7.1c-0.3,0.3-0.3,0.8,0,1.1l7.1,7.1
	C28.1,24.6,28.3,26.1,27.4,27.1z"/>
</svg>
