<?xml version="1.0" encoding="utf-8"?>
<!-- Generator: Adobe Illustrator 27.2.0, SVG Export Plug-In . SVG Version: 6.00 Build 0)  -->
<svg version="1.1" id="Layer_1" xmlns="http://www.w3.org/2000/svg" xmlns:xlink="http://www.w3.org/1999/xlink" x="0px" y="0px"
	 viewBox="0 0 32 32" style="enable-background:new 0 0 32 32;" xml:space="preserve">
<style type="text/css">
	.st0{fill:#FBC926;}
	.st1{fill:#FFFFFF;}
</style>
<g>
	<path class="st0" d="M13.4,29.5c-0.2,0-0.4-0.1-0.5-0.3c-0.1-0.2-0.2-0.4-0.1-0.6l2.2-10.6H9.3c-0.3,0-0.6-0.2-0.7-0.4
		c-0.1-0.3-0.1-0.6,0-0.9l9.3-13.9L18,2.6l0.4-0.1c0.2,0,0.4,0.1,0.5,0.2c0.1,0.2,0.2,0.4,0.1,0.6l-2.3,10.1h5.9
		c0.3,0,0.6,0.2,0.7,0.4c0.1,0.3,0.1,0.6,0,0.9l-9.4,14.5C13.8,29.4,13.6,29.5,13.4,29.5z"/>
	<path class="st1" d="M18.5,3c0.1,0,0.2,0.1,0.2,0.2l0,0l-2.4,10.7h6.5c0.3,0,0.4,0.3,0.3,0.5l-9.4,14.5c0,0.1-0.1,0.1-0.1,0.1
		c-0.1,0-0.2-0.1-0.2-0.2l2.3-11.2H9.3c-0.3,0-0.4-0.3-0.3-0.5L18.5,3C18.4,3,18.4,3,18.5,3 M18.5,2c-0.4,0-0.8,0.2-0.9,0.5l-9.3,14
		c-0.3,0.4-0.3,1-0.1,1.4c0.2,0.4,0.7,0.7,1.2,0.7h5l-2.1,10c-0.1,0.3,0,0.7,0.2,0.9c0.2,0.3,0.6,0.5,0.9,0.5c0.4,0,0.8-0.2,1-0.6
		L23.8,15c0.3-0.4,0.3-0.9,0.1-1.4c-0.2-0.4-0.7-0.7-1.2-0.7h-5.2l2.2-9.5c0.1-0.4,0-0.7-0.2-1C19.1,2.2,18.8,2,18.5,2L18.5,2z"/>
</g>
</svg>
