<?xml version="1.0" encoding="utf-8"?>
<!-- Generator: Adobe Illustrator 27.2.0, SVG Export Plug-In . SVG Version: 6.00 Build 0)  -->
<svg version="1.1" id="Layer_1" xmlns="http://www.w3.org/2000/svg" xmlns:xlink="http://www.w3.org/1999/xlink" x="0px" y="0px"
	 viewBox="0 0 32 32" style="enable-background:new 0 0 32 32;" xml:space="preserve">
<style type="text/css">
	.st0{fill:#FFFFFF;}
	.st1{fill:#EC2027;}
	.st2{fill:#FAED23;}
	.st3{fill:#3BB54A;}
	.st4{fill:#FBB03A;}
	.st5{fill:#F79420;}
	.st6{fill:#F15A26;}
	.st7{fill:#009247;}
	.st8{fill:#D9E026;}
	.st9{fill:#006937;}
	.st10{fill:#8DC640;}
	.st11{fill:#C1272D;}
</style>
<g>
	<path class="st0" d="M25.5,28c-0.6,0-1.3-0.2-1.8-0.7c-1-1-1-2.6,0-3.5c2.1-2.1,3.2-4.8,3.2-7.8c0-6.1-4.9-11-11-11S5,9.9,5,16
		c0,2.9,1.1,5.7,3.2,7.8c1,1,1,2.6,0,3.5c-1,1-2.6,1-3.5,0c-3-3-4.7-7-4.7-11.3C0,7.2,7.2,0,16,0s16,7.2,16,16
		c0,4.3-1.7,8.3-4.7,11.3C26.8,27.8,26.2,28,25.5,28z"/>
</g>
<path class="st1" d="M4.7,20.1C4.3,19,4.1,17.8,4,16.5H1c0.1,1.7,0.4,3.3,0.9,4.8L4.7,20.1z"/>
<path class="st2" d="M10.7,2l1.1,2.8C13,4.3,14.2,4.1,15.5,4V1C13.8,1.1,12.2,1.4,10.7,2z"/>
<path class="st3" d="M26.9,5.8l-2.1,2.1c0.8,0.9,1.5,1.9,2.1,3.1l2.8-1.1C29,8.3,28.1,6.9,26.9,5.8z"/>
<path class="st4" d="M5.8,5.1l2.1,2.1C8.8,6.3,9.8,5.6,11,5.1L9.8,2.4C8.3,3,6.9,3.9,5.8,5.1z"/>
<path class="st5" d="M5.1,11c0.5-1.1,1.2-2.2,2.1-3.1L5.1,5.8c-1.1,1.2-2,2.5-2.7,4L5.1,11z"/>
<path class="st6" d="M4,15.5c0.1-1.3,0.3-2.5,0.7-3.6L2,10.7c-0.6,1.5-0.9,3.1-0.9,4.8H4z"/>
<path class="st7" d="M27.3,11.9c0.4,1.1,0.7,2.4,0.7,3.6h3c-0.1-1.7-0.4-3.3-0.9-4.8L27.3,11.9z"/>
<path class="st8" d="M16.5,4c1.3,0.1,2.5,0.3,3.6,0.7L21.3,2c-1.5-0.6-3.1-0.9-4.8-0.9V4z"/>
<path class="st9" d="M31,16.5h-3c-0.1,1.3-0.3,2.5-0.7,3.6l2.8,1.1C30.6,19.8,30.9,18.2,31,16.5z"/>
<path class="st10" d="M21,5.1c1.1,0.5,2.2,1.2,3.1,2.1l2.1-2.1c-1.2-1.1-2.5-2-4-2.7L21,5.1z"/>
<path class="st11" d="M7.5,24.5c-1-1-1.8-2.2-2.4-3.4l-2.8,1.1c0.7,1.6,1.7,3.1,3,4.3c0,0,0,0.1,0.1,0.1c0.6,0.6,1.5,0.6,2.1,0
	C8.1,26,8.1,25.1,7.5,24.5z"/>
<path class="st9" d="M26.9,21c-0.6,1.3-1.4,2.4-2.3,3.4c0,0,0,0-0.1,0c-0.6,0.6-0.6,1.5,0,2.1c0.6,0.6,1.5,0.6,2.1,0
	c1.3-1.3,2.3-2.8,3-4.4L26.9,21z"/>
</svg>
